<svg xmlns="http://www.w3.org/2000/svg" style="background:0 0" preserveAspectRatio="xMidYMid" viewBox="119.9 55 267.2 72.2"><defs><filter id="editing-extrusion" x="-100%" y="-100%" width="300%" height="300%"><feFlood result="color1" flood-color="#444"></feFlood><feConvolveMatrix order="7,7" divisor="1" kernelMatrix="1 0 0 0 0 0 0 0 1 0 0 0 0 0 0 0 1 0 0 0 0 0 0 0 1 0 0 0 0 0 0 0 1 0 0 0 0 0 0 0 1 0 0 0 0 0 0 0 1" in="SourceAlpha" result="extrude"></feConvolveMatrix><feComposite in="color1" in2="extrude" result="comp-extrude" operator="in"></feComposite><feOffset dx="3.5" dy="3.5" in="comp-extrude" result="offset-extrude"></feOffset><feMerge><feMergeNode in="offset-extrude"></feMergeNode><feMergeNode in="SourceGraphic"></feMergeNode></feMerge></filter></defs><g filter="url(#editing-extrusion)"><path d="M130.3 107.5q-4.5 0-7.2-2.8-2.8-2.8-3.2-7.5l5.7-1.8q.5 3.6 1.7 5.4 1.3 1.7 3.6 1.7 1.8 0 2.8-1 1-1.1 1-3 0-1.5-.7-2.8-.7-1.3-2.3-2.6l-6.4-5.5q-2.2-1.8-3.3-3.9-1.2-2-1.2-5 0-4.4 2.5-6.8 2.6-2.4 7-2.4 4.2 0 6.6 2.7 2.4 2.8 2.8 7l-4.6 1.8q-.4-3.2-1.5-4.8-1-1.6-3-1.6-1.7 0-2.7 1-1 1.2-1 2.8 0 2 1.9 3.7l6.5 6q2.5 2.3 3.9 4.5 1.4 2.3 1.4 5.5 0 4.6-2.8 7-2.7 2.4-7.5 2.4zm15.4 11.7V70h6.8v3q3-3.5 7-3.5 5.1 0 6.8 4.3 1.7 4.4 1.7 9.6v9q0 6.8-2 11-2.1 4.1-7.2 4.1-3.3 0-6.3-3.2v14.9h-6.8zm11.8-17q2.3 0 3-2.4.7-2.4.7-7.4v-9q0-4-.8-6.3-.8-2.2-3.2-2.2-2.4 0-4.7 2v23.6q2.3 1.7 5 1.7zm27 5.3q-4.3 0-6.7-1.6-2.4-1.6-3.3-4.8-1-3.2-1-8.3v-8.5q0-7.7 2.4-11.2 2.4-3.6 8.6-3.6 4.4 0 6.7 1.9 2.3 1.8 3 5.2.8 3.4.8 9v3h-14.6v7.5q0 3.4 1 4.9 1 1.5 3.1 1.5 2.2 0 3-1.5.7-1.5.7-4.6v-2.2h6.7v1.4q0 5.8-2.5 8.9-2.5 3-8 3zM180.4 85h7.8v-3.3q0-3.8-.7-5.4-.7-1.6-3.1-1.6-1.7 0-2.5.7-.9.8-1.2 2.6-.3 1.7-.3 5v2zm27.4 22.6q-2 0-3.8-1.2-1.7-1.2-2.6-3.2-1-2-1-4.1 0-4.4 1.9-7.1 1.8-2.7 4.7-4.3 2.9-1.6 8-3.7v-2.6q0-3.7-.7-5.2-.8-1.5-3-1.5-4 0-4 5.3v1.8l-6.7-.2q.1-6.2 2.8-9 2.7-3 8.3-3 5.3 0 7.7 3 2.4 2.8 2.4 8.7v17q0 4 .7 8.8h-6.3l-.9-5.4q-.8 2.5-2.6 4.2-2 1.7-4.9 1.7zm2.7-5.9q1.4 0 2.6-1 1.3-1 1.9-2V88q-2.8 1.5-4.3 2.6-1.5 1.2-2.5 2.6-1 1.5-1 3.5 0 2.4.9 3.6.8 1.2 2.4 1.2zm18 5.4V55h7v31l9.9-16h7.2l-8.7 14.4 8.4 22.5h-6.8l-7-19-3 4.8V107h-7zm37.6.5q-4.3 0-6.6-1.6-2.4-1.6-3.4-4.8-1-3.2-1-8.3v-8.5q0-7.7 2.5-11.2 2.4-3.6 8.5-3.6 4.5 0 6.8 1.9 2.2 1.8 3 5.2.7 3.4.7 9v3H262v7.5q0 3.4 1 4.9 1 1.5 3.2 1.5t3-1.5q.7-1.5.7-4.6v-2.2h6.7v1.4q0 5.8-2.5 8.9-2.5 3-8 3zm-4-22.6h7.8v-3.3q0-3.8-.7-5.4-.8-1.6-3.1-1.6-1.7 0-2.6.7-.8.8-1.2 2.6-.3 1.7-.3 5v2zm21 22.1V70h6.8v5.3q1.9-3.2 4-4.4 2-1.3 4.2-1.3h1v7.6q-2-.8-3.7-.8-1.7 0-3 .8t-2.5 2.8v27H283zm33.5.5q-3.3 0-6.3-3.2v2.7h-6.8V55.2h6.8V73q3-3.5 7-3.5 5 0 6.8 4.3 1.7 4.4 1.7 9.6v9q0 15.1-9.2 15.1zm-1.4-5.3q2.4 0 3-2.4.7-2.4.7-7.4v-9q0-4-.7-6.3-.8-2.2-3.2-2.2-2.3 0-4.7 1.9v23.7q2.2 1.7 5 1.7zm27 5.3q-6 0-8.4-3.5-2.5-3.4-2.5-10V83.1q0-6.7 2.5-10.2 2.5-3.5 8.4-3.5 5.8 0 8.2 3.5 2.5 3.5 2.5 10.2v10.7q0 6.7-2.5 10.1-2.4 3.5-8.2 3.5zm0-5q1.8 0 2.6-1.1.9-1 1-2.7.3-1.6.3-4.3V82.8q0-2.8-.2-4.4-.2-1.6-1-2.7-.9-1.1-2.7-1.1-1.9 0-2.8 1-.8 1.2-1 2.8-.2 1.6-.2 4.4v11.6q0 2.7.2 4.3.2 1.6 1 2.7 1 1 2.8 1zm14.1 4.5l8.3-19.4-8.1-17.6h6.5l5.5 11.7 4.8-11.7h6.7l-8.5 18.4 8.6 18.6h-6.5l-5.8-12.5-5 12.5h-6.5z" fill="#749d85"></path></g><style></style></svg>