<svg xmlns="http://www.w3.org/2000/svg" xmlns:xlink="http://www.w3.org/1999/xlink" width="100" height="100"><svg xmlns="http://www.w3.org/2000/svg" preserveAspectRatio="none" transform="matrix(.69 0 0 .69 15.5 15.5)" viewBox="0 0 100 100"><defs><path id="a" d="M84.6 69.9V49.45q0-7.2-7.2-7.2h-.3V22.6q0-7.2-7.2-7.2H49.45q-3.6 0-5.35 1.85-1.85 1.75-1.85 5.35v19.65H22.6q-7.2 0-7.2 7.2V69.9q0 7.2 7.2 7.2h19.65v.3q0 7.2 7.2 7.2H69.9q7.2 0 7.2-7.2v-.3h.3q7.2 0 7.2-7.2m-2.4-20.45V69.9q0 4.8-4.8 4.8h-.3V44.65h.3q4.8 0 4.8 4.8M69.9 17.8q4.8 0 4.8 4.8v19.65H44.65V22.6q0-2.4 1.15-3.65 1.25-1.15 3.65-1.15H69.9M44.65 44.65H74.7V74.7H44.65V44.65m-26.85 4.8q0-4.8 4.8-4.8h19.65V74.7H22.6q-4.8 0-4.8-4.8V49.45M49.45 82.2q-4.8 0-4.8-4.8v-.3H74.7v.3q0 4.8-4.8 4.8H49.45M39.8 22.85q-.35-.35-.85-.4-6.65-.3-10.65 4.5V27q-3 3.4-3.4 8.4V36l-1.65-1.65Q22.9 34 22.4 34t-.85.35q-.35.35-.35.85t.35.85l3.75 3.75.1.1q.3.25.75.25h.2q.4-.1.65-.35.05-.05.1-.05 0-.05.05-.1l3.6-3.6q.35-.4.35-.85 0-.5-.35-.85-.4-.35-.85-.35-.5 0-.85.4l-1.75 1.75v-.55q.3-4.2 2.8-7.05h.05q3.25-3.9 8.7-3.7.5 0 .85-.3.35-.35.4-.85 0-.5-.3-.85z"/></defs><use xlink:href="#a"/></svg></svg>